<?xml version="1.0" standalone="no"?>
<!DOCTYPE svg PUBLIC "-//W3C//DTD SVG 20010904//EN"
 "http://www.w3.org/TR/2001/REC-SVG-20010904/DTD/svg10.dtd">
<svg version="1.0" xmlns="http://www.w3.org/2000/svg"
 width="122.000000pt" height="77.000000pt" viewBox="0 0 122.000000 77.000000"
 preserveAspectRatio="xMidYMid meet">

<g transform="translate(0.000000,77.000000) scale(0.100000,-0.100000)"
fill="#000000" stroke="none">
<path d="M834 751 c-71 -44 -61 -135 18 -171 24 -11 50 -20 58 -20 26 0 60
-29 53 -46 -15 -40 -95 -36 -108 5 -5 17 -15 21 -46 21 -37 0 -40 -2 -34 -22
20 -72 55 -98 135 -98 87 0 130 38 130 113 -1 49 -28 76 -106 101 -54 18 -69
27 -69 42 0 29 70 33 85 5 8 -15 21 -21 45 -21 45 0 47 26 7 71 -24 27 -37 33
-83 36 -41 3 -61 0 -85 -16z"/>
<path d="M170 590 l0 -170 40 0 40 0 0 98 0 97 57 -97 c56 -97 57 -98 95 -98
l38 0 0 170 0 170 -35 0 -34 0 -3 -97 -3 -98 -58 98 c-57 97 -58 97 -97 97
l-40 0 0 -170z"/>
<path d="M490 590 l0 -170 40 0 40 0 0 65 0 65 55 0 c69 0 101 19 116 70 9 28
8 46 -1 74 -18 56 -40 66 -152 66 l-98 0 0 -170z m172 87 c20 -32 2 -54 -50
-63 l-42 -7 0 48 0 48 42 -7 c23 -4 46 -12 50 -19z"/>
<path d="M5 425 c13 -78 70 -178 140 -244 111 -104 246 -159 409 -168 168 -9
320 28 438 107 109 74 195 196 213 305 l7 40 -37 -60 c-20 -33 -51 -75 -68
-93 -57 -60 -169 -127 -263 -158 -82 -27 -100 -29 -239 -29 -139 0 -157 2
-239 29 -94 31 -206 98 -263 158 -17 18 -48 60 -68 93 l-36 60 6 -40z"/>
<path d="M170 360 c0 -9 7 -17 15 -17 8 0 15 8 15 17 0 9 -7 17 -15 17 -8 0
-15 -8 -15 -17z"/>
<path d="M221 362 c-10 -18 -8 -21 9 -19 22 1 24 5 11 26 -7 11 -11 10 -20 -7z"/>
<path d="M267 360 c3 -11 7 -20 8 -20 1 0 5 9 8 20 3 12 0 20 -8 20 -8 0 -11
-8 -8 -20z"/>
<path d="M302 360 c0 -14 2 -19 5 -12 2 6 2 18 0 25 -3 6 -5 1 -5 -13z"/>
<path d="M327 374 c-14 -15 -6 -34 14 -34 14 0 19 5 17 17 -3 18 -20 27 -31
17z m23 -14 c0 -5 -4 -10 -10 -10 -5 0 -10 5 -10 10 0 6 5 10 10 10 6 0 10 -4
10 -10z"/>
<path d="M370 363 c0 -11 7 -20 15 -20 8 0 15 4 15 7 0 4 -7 13 -15 20 -12 10
-15 9 -15 -7z"/>
<path d="M426 373 c-11 -12 -6 -30 9 -30 8 0 15 6 15 13 0 15 -15 26 -24 17z"/>
<path d="M471 363 c-1 -16 5 -23 17 -23 10 0 13 3 6 8 -6 4 -14 14 -17 22 -4
10 -6 8 -6 -7z"/>
<path d="M520 360 c0 -18 3 -19 20 -10 22 12 18 30 -6 30 -8 0 -14 -9 -14 -20z"/>
<path d="M570 370 c0 -5 7 -7 15 -4 8 4 15 1 15 -5 0 -6 -8 -11 -17 -12 -13 0
-14 -2 -4 -6 8 -3 20 2 28 13 12 16 13 16 13 0 0 -11 6 -16 18 -14 18 3 32 17
32 33 0 6 -5 3 -10 -5 -5 -8 -10 -10 -10 -5 0 12 -80 17 -80 5z"/>
<path d="M680 360 c0 -11 7 -20 15 -20 8 0 15 5 15 10 0 6 -6 10 -12 10 -9 0
-8 4 2 10 13 8 12 10 -2 10 -11 0 -18 -8 -18 -20z"/>
<path d="M720 363 c0 -11 8 -19 19 -20 13 -1 18 4 17 15 -4 24 -36 28 -36 5z"/>
<path d="M789 378 c-8 -27 -5 -38 12 -38 10 0 19 5 19 10 0 6 -5 10 -11 10 -5
0 -7 5 -4 10 3 6 1 10 -4 10 -6 0 -11 -1 -12 -2z"/>
<path d="M831 362 c-1 -17 4 -23 16 -20 10 2 18 11 19 21 1 12 1 13 -3 2 -6
-20 -20 -19 -26 3 -3 12 -5 11 -6 -6z"/>
<path d="M880 359 c0 -18 2 -19 15 -9 8 7 15 16 15 21 0 5 -7 9 -15 9 -9 0
-15 -9 -15 -21z"/>
<path d="M920 360 c0 -13 5 -18 15 -14 8 4 15 12 15 20 0 8 -7 14 -15 14 -8 0
-15 -9 -15 -20z"/>
<path d="M1005 363 c3 -8 5 -18 5 -21 0 -8 20 20 20 29 0 3 -7 6 -15 6 -10 0
-14 -6 -10 -14z"/>
</g>
</svg>
